# xmcd CD database file
#
# Track frame offsets:
#	150
#	18262
#	37430
#	55550
#
# Disc length: 991 seconds
#
# Revision: 3
# Processed by: cddbd v1.5.2PL0 Copyright (c) Steve Scherf et al.
# Submitted via: CDex 1.70beta3
#
DISCID=2c03dd04
DTITLE=石川 智晶 - Simoun　オープニングテーマ　美しければそれでいい
DYEAR=2006
DGENRE=Anime
TTITLE0=美しければそれでいい
TTITLE1=house
TTITLE2=out vocal/美しければそれでいい (with out vocal)
TTITLE3=out vocal/house (with out vocal)
EXTD=YEAR: 2006
EXTT0=
EXTT1=
EXTT2=
EXTT3=
PLAYORDER=
